# xmcd CD Database Entry
#
# Track frame offsets:
# 150
# 19808
# 42703
# 62741
# 83077
# 104465
# 123842
# 145569
# 160767
# 179875
# 200714
# 202731
# 222329
# 237280
# 261177
# 290973
# 308560
#
# Disc length: 4388 seconds
#
# Revision: 1
# Processed by: cddbd v1.4PL0 Copyright (c) Steve Scherf et al.
# Submitted via: tcd 2.0b
#
DISCID=00112211
DTITLE=M Clan - Sin Enchufe
DYEAR=1900
DGENRE=
TTITLE0=Carolina
TTITLE1=Quedate a dormir
TTITLE2=Souvenir
TTITLE3=Los periodicos de mañana
TTITLE4=Maggie despierta
TTITLE5=Donde el rio hierve
TTITLE6=La calma
TTITLE7=Que esta pasando
TTITLE8=Sin equipaje
TTITLE9=El tren que nunca cogimos
TTITLE10=Minutos musicales
TTITLE11=Chilaba y cachimba
TTITLE12=Todo negro
TTITLE13=Vuelve
TTITLE14=Llamando a la tierra
TTITLE15=Un buen momento
TTITLE16=Usar y tirar
EXTD=
EXTT0=
EXTT1=
EXTT2=
EXTT3=
EXTT4=
EXTT5=
EXTT6=
EXTT7=
EXTT8=
EXTT9=
EXTT10=
EXTT11=
EXTT12=
EXTT13=
EXTT14=
EXTT15=
EXTT16=
PLAYORDER=
